<svg width="18" height="18" viewBox="0 0 18 18" fill="none" xmlns="http://www.w3.org/2000/svg">
<path d="M6.50224 8.77581C7.08572 9.96868 8.05266 10.9312 9.24818 11.5093C9.33565 11.5507 9.4324 11.5687 9.52892 11.5614C9.62544 11.5541 9.71839 11.5218 9.79863 11.4676L11.559 10.2938C11.6368 10.2419 11.7264 10.2102 11.8196 10.2017C11.9127 10.1931 12.0066 10.2079 12.0926 10.2448L15.3858 11.6562C15.4977 11.7037 15.5911 11.7863 15.652 11.8915C15.7128 11.9967 15.7378 12.1189 15.7232 12.2395C15.6191 13.054 15.2217 13.8027 14.6054 14.3453C13.9891 14.8878 13.1961 15.1872 12.375 15.1872C9.83887 15.1872 7.40661 14.1798 5.61329 12.3864C3.81997 10.5931 2.8125 8.16087 2.8125 5.62473C2.81254 4.80361 3.11189 4.01065 3.65448 3.39433C4.19707 2.77802 4.94571 2.38061 5.76021 2.27652C5.88088 2.26192 6.00302 2.28693 6.10824 2.34778C6.21346 2.40863 6.29605 2.50203 6.34357 2.6139L7.75619 5.91C7.79272 5.99525 7.80761 6.08822 7.79952 6.18063C7.79144 6.27303 7.76062 6.362 7.70983 6.43961L6.54008 8.22693C6.48684 8.30734 6.45537 8.40017 6.44874 8.49638C6.4421 8.59258 6.46054 8.68886 6.50224 8.77581V8.77581Z" stroke="#384250" stroke-linecap="round" stroke-linejoin="round"/>
</svg>
