<svg width="60" height="60" viewBox="0 0 60 60" fill="none" xmlns="http://www.w3.org/2000/svg">
<g clip-path="url(#clip0_1147_7321)">
<path d="M59.0238 5.07006L40.9405 0.0427148C40.7352 -0.0142383 40.518 -0.0142383 40.3127 0.0427148L22.2319 5.07006C21.6083 5.24338 21.2433 5.88943 21.4167 6.51299C21.59 7.13643 22.2363 7.50111 22.8596 7.32815L40.6265 2.38799L57.538 7.08979V17.4492C57.538 26.0192 53.1082 33.9466 45.8927 38.4465C45.1674 36.9659 44.1084 35.6485 42.764 34.5949L38.6269 31.3525C37.4099 30.3989 35.8882 29.8736 34.3419 29.8736H27.0633C24.873 26.1028 23.7177 21.8217 23.7177 17.4492V16.603C23.7177 15.9558 23.1929 15.4311 22.5458 15.4311C21.8987 15.4311 21.3739 15.9558 21.3739 16.603V17.4492C21.3739 21.7863 22.4127 26.0416 24.3914 29.8736H19.1067C18.1231 29.8736 17.1694 30.0774 16.2716 30.4794L11.7905 32.486C11.5858 32.3115 11.321 32.2057 11.0311 32.2057H5.76549L1.6153 31.008C0.993618 30.8289 0.343931 31.1872 0.164399 31.8091C-0.0150146 32.431 0.343579 33.0806 0.965493 33.26L4.42768 34.259V45.8296H1.29045C0.643345 45.8296 0.118579 46.3544 0.118579 47.0015C0.118579 47.6486 0.643345 48.1734 1.29045 48.1734H11.0311C11.4668 48.1734 11.8462 47.935 12.0481 47.5821L16.0643 49.7027C16.2424 49.7968 16.4258 49.88 16.6114 49.958V50.8768C16.6114 53.4233 18.738 55.5499 21.2845 55.5499C23.8612 55.5499 25.9576 53.4535 25.9576 50.8768V50.5053H28.1669C30.5998 50.5053 32.2835 48.4477 32.243 46.1153H32.6785C33.6888 46.1153 34.5108 46.9373 34.5108 47.9476V58.8281C34.5108 59.4752 35.0355 60 35.6826 60C36.3298 60 36.8545 59.4752 36.8545 58.8281V47.9476C36.8545 45.645 34.9813 43.7716 32.6785 43.7716H31.4512C30.6913 42.7386 29.4499 42.1086 28.1667 42.1086H26.1978C25.5091 42.1086 24.9235 41.5277 24.9235 40.8343C24.9235 40.1317 25.4952 39.5601 26.1978 39.5601H35.1728L37.2883 41.2469C38.2888 42.0445 38.8626 43.2358 38.8626 44.5151V45.5558C38.8626 47.2391 39.9389 48.7842 41.5131 49.3753V53.6893C41.5131 54.3364 42.0378 54.8612 42.6849 54.8612C43.3321 54.8612 43.8568 54.3364 43.8568 53.6893V49.5287C45.6654 49.1116 47.0184 47.4894 47.0184 45.5559V43.3342C47.0184 42.4332 46.9107 41.5496 46.7045 40.6975C54.8565 35.8212 59.882 26.9996 59.882 17.4494V6.1994C59.8817 5.67287 59.5309 5.21104 59.0238 5.07006ZM9.8592 45.8298H6.77143V34.5494H9.8592V45.72V45.8298ZM23.6139 50.8768C23.6139 52.1612 22.5689 53.2061 21.2845 53.2061C20.0161 53.2061 18.9552 52.1453 18.9552 50.8768V50.4972C19.0708 50.5031 19.1869 50.5059 19.3029 50.5059H23.6139V50.8768ZM44.6744 45.5557C44.6744 46.5118 43.8964 47.2898 42.9403 47.2898C42 47.2898 41.2063 46.4961 41.2063 45.5551V44.5153C41.2063 42.5183 40.3107 40.659 38.7494 39.4139L36.3497 37.5007C36.2347 37.4088 36.1048 37.3376 35.9665 37.2895C35.8288 37.2412 35.683 37.2159 35.5359 37.2159H26.198C24.5769 37.2159 23.2014 38.2875 22.7426 39.7596C22.6367 40.0993 22.5796 40.4602 22.5796 40.8343C22.5796 42.8042 24.2285 44.4528 26.198 44.4528H28.1667C29.1082 44.4528 29.9008 45.2414 29.9008 46.1869C29.9008 47.2125 29.2919 48.1617 28.1667 48.1617H19.3032C18.5611 48.1617 17.8146 47.9766 17.1585 47.6303L12.2027 45.0137V34.8694L17.2292 32.6187C17.8236 32.3526 18.4553 32.2176 19.1066 32.2176H34.3418C35.3664 32.2176 36.3748 32.5657 37.1811 33.1975L41.3184 36.4399C42.6582 37.4899 43.6387 38.872 44.183 40.4262C44.1987 40.4892 44.219 40.5514 44.2458 40.6123C44.527 41.478 44.6744 42.3942 44.6744 43.3341V45.5557Z" fill="#FF692E"/>
<path d="M40.6357 4.42969C39.9886 4.42969 39.4638 4.95445 39.4638 5.60156V6.48C33.1171 7.07273 28.1328 12.428 28.1328 18.9262C28.1328 19.3893 28.158 19.8493 28.2077 20.2936C28.2635 20.7913 28.6292 21.1986 29.118 21.3073C29.6069 21.4159 30.1107 21.202 30.372 20.7748C31.1744 19.4632 32.5019 18.5543 34.0137 18.2811C36.1309 17.8997 38.2817 18.8282 39.4632 20.6037V27.5585C39.4632 29.4759 41.0233 31.0361 42.9407 31.0361C44.8583 31.0361 46.4184 29.4759 46.4184 27.5585C46.4184 26.9114 45.8936 26.3866 45.2465 26.3866C44.5994 26.3866 44.0746 26.9114 44.0746 27.5585C44.0746 28.1837 43.5659 28.6923 42.9407 28.6923C42.3155 28.6923 41.807 28.1837 41.807 27.5585V20.6107C42.8006 19.1146 44.495 18.1959 46.3006 18.1959C48.19 18.1959 49.9098 19.1586 50.9007 20.7711C51.1627 21.1977 51.6671 21.4106 52.156 21.3009C52.6447 21.191 53.0096 20.7829 53.064 20.2849C53.1127 19.8393 53.1375 19.3822 53.1375 18.9262C53.1375 12.428 48.1536 7.07273 41.8077 6.48V5.60156C41.8075 4.95445 41.2828 4.42969 40.6357 4.42969ZM50.6428 17.1773C49.3855 16.3239 47.8846 15.8522 46.3004 15.8522C44.1378 15.8522 42.0852 16.7695 40.6371 18.3211C39.1756 16.7553 37.1098 15.8529 34.9591 15.8529C34.5075 15.8529 34.0518 15.8927 33.5975 15.9745C32.5216 16.1689 31.5109 16.5875 30.625 17.1896C31.4512 12.4126 35.6258 8.76832 40.6357 8.76832C45.6405 8.76844 49.8116 12.4068 50.6428 17.1773Z" fill="#FF692E"/>
</g>
<defs>
<clipPath id="clip0_1147_7321">
<rect width="60" height="60" fill="white"/>
</clipPath>
</defs>
</svg>
