<svg width="60" height="60" viewBox="0 0 60 60" fill="none" xmlns="http://www.w3.org/2000/svg">
<path d="M52.7344 0C52.4953 0 52.2592 0.0123047 52.026 0.0350391C51.9361 0.0130078 51.8428 0 51.7461 0H16.4062C12.2707 0 8.90625 3.36445 8.90625 7.5V12.1875C8.90625 12.8347 9.43102 13.3594 10.0781 13.3594C10.7252 13.3594 11.25 12.8347 11.25 12.1875V7.5C11.25 4.6568 13.563 2.34375 16.4062 2.34375H47.3959C46.2006 3.63914 45.4688 5.36824 45.4688 7.26562C45.4688 7.30523 45.4709 7.34426 45.4747 7.38281C45.4709 7.42137 45.4688 7.46039 45.4688 7.5V15.5078C45.4688 16.155 45.9935 16.6796 46.6406 16.6796C47.2877 16.6796 47.8125 16.155 47.8125 15.5078V8.4375H58.8281C59.4752 8.4375 60 7.91285 60 7.26562C60 3.25934 56.7407 0 52.7344 0ZM47.9546 6.09375C48.4819 3.94395 50.4243 2.34375 52.7345 2.34375C55.0447 2.34375 56.987 3.94395 57.5142 6.09375H47.9546Z" fill="#FF692E"/>
<path d="M39.5935 6.3269H32.1472C31.5001 6.3269 30.9753 6.85155 30.9753 7.49878C30.9753 8.14601 31.5001 8.67065 32.1472 8.67065H36.9133L23.6206 21.9633L15.8286 14.1713C15.3709 13.7137 14.6291 13.7138 14.1712 14.1713L3.65364 24.689C3.19602 25.1466 3.19602 25.8887 3.65364 26.3464C3.88251 26.5751 4.18227 26.6895 4.48227 26.6895C4.78227 26.6895 5.08204 26.5751 5.3109 26.3463L15 16.6572L22.792 24.4492C23.2497 24.9069 23.9915 24.9069 24.4494 24.4492L38.4217 10.477V14.9451C38.4217 15.5923 38.9464 16.117 39.5935 16.117C40.2406 16.117 40.7654 15.5923 40.7654 14.9451V7.49878C40.7654 6.85155 40.2406 6.3269 39.5935 6.3269Z" fill="#FF692E"/>
<path d="M53.4387 36.7985C53.4388 36.1513 52.914 35.6266 52.2669 35.6266H43.3607V26.7204C43.3607 26.0732 42.8359 25.5485 42.1888 25.5485C35.9855 25.5485 30.9388 30.5952 30.9388 36.7985C30.9388 43.0018 35.9855 48.0485 42.1888 48.0485C43.3294 48.0485 44.4306 47.8773 45.4688 47.5603V52.7339C45.4688 55.4479 43.2608 57.6558 40.5469 57.6558C37.8329 57.6558 35.625 55.4479 35.625 52.7339C35.625 52.6975 35.6228 52.6615 35.6196 52.626C35.6241 52.5844 35.6266 52.5423 35.6266 52.4995C35.6266 51.8523 35.1019 51.3277 34.4548 51.3277H11.25V26.2529C11.25 25.6057 10.7252 25.0811 10.0781 25.0811C9.43102 25.0811 8.90625 25.6057 8.90625 26.2529V51.3277H3.75C3.10289 51.3277 2.57812 51.8523 2.57812 52.4995C2.57812 56.6351 5.94258 59.9995 10.0781 59.9995H40.5469C44.5532 59.9995 47.8125 56.7402 47.8125 52.7339V46.6382C47.8125 46.6057 47.8103 46.5738 47.8076 46.542C51.171 44.5948 53.4387 40.9566 53.4387 36.7985ZM10.0781 57.6558C7.63793 57.6558 5.5882 55.9519 5.05617 53.6714H33.3437C33.5414 55.198 34.2132 56.5774 35.2083 57.6558H10.0781ZM42.1888 45.7048C37.2779 45.7048 33.2825 41.7095 33.2825 36.7985C33.2825 32.2847 36.6578 28.5444 41.0169 27.969V36.7985C41.0169 37.4457 41.5417 37.9704 42.1888 37.9704H51.0183C50.4428 42.3295 46.7025 45.7048 42.1888 45.7048Z" fill="#FF692E"/>
<path d="M46.1719 18.9873C45.5248 18.9873 45 19.512 45 20.1592V32.8154C45 33.4627 45.5248 33.9873 46.1719 33.9873H58.8281C59.4752 33.9873 60 33.4627 60 32.8154C60 25.1905 53.7967 18.9873 46.1719 18.9873ZM47.3438 31.6436V21.3904C52.7428 21.9398 57.0475 26.2444 57.597 31.6436H47.3438Z" fill="#FF692E"/>
<path d="M24.7266 37.9688H14.6484C14.0013 37.9688 13.4766 38.4934 13.4766 39.1406C13.4766 39.7879 14.0013 40.3125 14.6484 40.3125H24.7266C25.3737 40.3125 25.8984 39.7879 25.8984 39.1406C25.8984 38.4934 25.3737 37.9688 24.7266 37.9688Z" fill="#FF692E"/>
<path d="M24.7266 43.5938H14.6484C14.0013 43.5938 13.4766 44.1184 13.4766 44.7656C13.4766 45.4129 14.0013 45.9375 14.6484 45.9375H24.7266C25.3737 45.9375 25.8984 45.4129 25.8984 44.7656C25.8984 44.1184 25.3737 43.5938 24.7266 43.5938Z" fill="#FF692E"/>
<path d="M18.6819 32.3438H14.6484C14.0013 32.3438 13.4766 32.8684 13.4766 33.5156C13.4766 34.1629 14.0013 34.6875 14.6484 34.6875H18.6819C19.329 34.6875 19.8538 34.1629 19.8538 33.5156C19.8538 32.8684 19.329 32.3438 18.6819 32.3438Z" fill="#FF692E"/>
</svg>
