<svg width="60" height="60" viewBox="0 0 60 60" fill="none" xmlns="http://www.w3.org/2000/svg">
<path d="M23.7281 43.5764C23.4873 43.4913 23.242 43.4028 22.9964 43.3116V38.7486C23.6086 38.9526 24.011 39.238 24.0324 39.2535C24.548 39.639 25.279 39.5364 25.6683 39.0226C26.0591 38.5067 25.9579 37.7716 25.4419 37.3808C25.3799 37.3338 24.4173 36.62 22.9964 36.3251V35.364C22.9964 34.7169 22.4717 34.1921 21.8245 34.1921C21.1774 34.1921 20.6527 34.7169 20.6527 35.364V36.3172C20.4996 36.3492 20.3451 36.3872 20.1885 36.4342C18.658 36.8939 17.5145 38.2012 17.2038 39.8461C16.9195 41.3516 17.4045 42.8055 18.4692 43.6406C19.0231 44.075 19.7107 44.4717 20.6527 44.8903V50.8314C19.871 50.7675 19.3636 50.5689 18.5078 50.0091C17.966 49.6548 17.2399 49.8068 16.8856 50.3484C16.5314 50.8901 16.6832 51.6163 17.2249 51.9707C18.563 52.8459 19.4789 53.1116 20.6527 53.181V54.167C20.6527 54.8141 21.1774 55.3389 21.8245 55.3389C22.4717 55.3389 22.9964 54.8141 22.9964 54.167V53.0477C25.1776 52.5108 26.5764 50.6549 26.884 48.825C27.2824 46.4551 26.0438 44.395 23.7281 43.5764ZM19.9157 41.7966C19.5481 41.5082 19.3876 40.9133 19.507 40.281C19.6123 39.7234 19.9685 39.0592 20.6527 38.7579V42.2771C20.377 42.1227 20.1272 41.9625 19.9157 41.7966ZM24.5727 48.4364C24.4338 49.2618 23.8992 50.1341 22.9964 50.572V45.8052C24.7579 46.457 24.6492 47.9811 24.5727 48.4364Z" fill="#FF692E"/>
<path d="M59.9709 23.9184C58.734 18.453 56.0103 13.4231 52.0942 9.37252C51.6443 8.90717 50.9024 8.89475 50.437 9.34463C49.9718 9.79451 49.9592 10.5364 50.4091 11.0018C53.2378 13.9275 55.3926 17.405 56.7442 21.1952C54.4702 19.9011 51.8881 19.2103 49.2198 19.2103C46.1134 19.2103 43.1245 20.1465 40.6023 21.8799C40.0227 16.1748 38.858 11.0253 37.2733 7.21909C36.4554 5.25468 35.5986 3.80191 34.7479 2.73597C37.3307 3.16921 39.8316 3.96011 42.2228 5.10292C42.8062 5.38182 43.5063 5.13479 43.7853 4.55085C44.0645 3.96702 43.8172 3.2673 43.2333 2.98828C39.0845 1.00547 34.6322 0 29.9999 0C26.4224 0 22.9169 0.609608 19.5808 1.81183C16.3571 2.97363 13.3656 4.66007 10.6898 6.82428C5.32834 11.1606 1.54237 17.2313 0.0290182 23.9184C-0.0846535 24.4203 0.142573 24.9377 0.589056 25.1937C1.03566 25.4497 1.59687 25.3843 1.97269 25.0327C4.36987 22.7893 7.49771 21.5539 10.7801 21.5539C14.0638 21.5539 17.1923 22.7893 19.5893 25.0327C20.04 25.4544 20.7401 25.4544 21.1908 25.0327C23.3009 23.058 25.9778 21.8648 28.8281 21.6072V31.2395C26.73 30.1488 24.3481 29.5312 21.8244 29.5312C13.4241 29.5312 6.5901 36.3652 6.5901 44.7655C6.5901 53.1659 13.4241 59.9999 21.8244 59.9999H46.6405C47.2876 59.9999 47.8124 59.4751 47.8124 58.828L47.8125 38.4375C47.8125 37.7904 47.2877 37.2657 46.6406 37.2657H35.0806C34.0853 35.5134 32.7529 33.9766 31.1718 32.7444V21.6071C34.0221 21.8647 36.699 23.0579 38.8091 25.0326C39.2598 25.4542 39.9599 25.4542 40.4106 25.0326C42.8077 22.7892 45.9361 21.5538 49.2198 21.5538C52.5022 21.5538 55.6301 22.7892 58.0272 25.0326C58.2499 25.241 58.5377 25.3488 58.8283 25.3488C59.028 25.3488 59.229 25.2978 59.4109 25.1936C59.8575 24.9377 60.0846 24.4203 59.9709 23.9184ZM45.4686 57.6561H29.9343C31.7514 56.5089 33.3102 54.9885 34.5025 53.203H45.4686V57.6561ZM36.9702 46.4063H45.4686V50.8593H35.7854C36.3941 49.4701 36.8016 47.9735 36.9702 46.4063ZM45.4687 39.6094V44.0625H37.0419C36.9709 42.5064 36.6654 41.0106 36.1599 39.6094H45.4687ZM34.715 44.7655C34.715 51.8734 28.9323 57.6561 21.8244 57.6561C14.7166 57.6561 8.93385 51.8734 8.93385 44.7655C8.93385 37.6577 14.7166 31.8749 21.8244 31.8749C28.9323 31.8749 34.715 37.6577 34.715 44.7655ZM19.3976 21.8798C16.8754 20.1464 13.8865 19.2102 10.7801 19.2102C8.10814 19.2102 5.52311 19.9026 3.24698 21.2001C6.68854 11.4343 15.1032 4.41878 25.2532 2.73445C24.4021 3.8005 23.545 5.25362 22.7267 7.21897C21.1418 11.0252 19.9772 16.1747 19.3976 21.8798ZM29.9999 19.2102C27.0558 19.2102 24.2174 20.0513 21.7816 21.6148C22.3528 16.3375 23.4367 11.6111 24.8903 8.11979C26.4187 4.44902 28.2811 2.34375 29.9999 2.34375C31.7188 2.34375 33.5813 4.44902 35.1096 8.11979C36.5632 11.6111 37.647 16.3375 38.2184 21.6148C35.7825 20.0513 32.9441 19.2102 29.9999 19.2102Z" fill="#FF692E"/>
</svg>
