<svg width="24" height="24" viewBox="0 0 24 24" fill="none" xmlns="http://www.w3.org/2000/svg">
<path d="M8.66965 11.7011C9.44762 13.2916 10.7369 14.575 12.3309 15.3457C12.4475 15.401 12.5765 15.4249 12.7052 15.4152C12.8339 15.4054 12.9579 15.3624 13.0648 15.2902L15.4119 13.7251C15.5157 13.6559 15.6352 13.6136 15.7594 13.6022C15.8837 13.5908 16.0088 13.6106 16.1235 13.6597L20.5144 15.5416C20.6636 15.6049 20.7881 15.715 20.8693 15.8553C20.9504 15.9956 20.9838 16.1585 20.9643 16.3194C20.8255 17.4054 20.2956 18.4036 19.4739 19.127C18.6521 19.8505 17.5948 20.2496 16.5 20.2496C13.1185 20.2496 9.87548 18.9063 7.48439 16.5153C5.0933 14.1242 3.75 10.8812 3.75 7.49965C3.75006 6.40481 4.14918 5.34754 4.87264 4.52578C5.5961 3.70403 6.59428 3.17415 7.68028 3.03537C7.84117 3.0159 8.00403 3.04924 8.14432 3.13038C8.28461 3.21151 8.39473 3.33604 8.4581 3.4852L10.3416 7.88C10.3903 7.99368 10.4101 8.11764 10.3994 8.24084C10.3886 8.36404 10.3475 8.48267 10.2798 8.58615L8.72011 10.9693C8.64912 11.0765 8.60716 11.2002 8.59831 11.3285C8.58947 11.4568 8.61405 11.5852 8.66965 11.7011V11.7011Z" stroke="white" stroke-linecap="round" stroke-linejoin="round"/>
</svg>
