<svg width="60" height="60" viewBox="0 0 60 60" fill="none" xmlns="http://www.w3.org/2000/svg">
<g clip-path="url(#clip0_1147_7313)">
<path d="M49.8878 12.9767C50.9082 11.9215 51.5385 10.4865 51.5385 8.90625C51.5385 5.67535 48.91 3.04688 45.6791 3.04688C42.4483 3.04688 39.8198 5.67535 39.8198 8.90625C39.8198 9.28894 39.8582 9.66293 39.9287 10.0255C39.742 10.0058 39.5552 9.98657 39.3689 9.97009C39.2082 9.95453 37.0494 9.7522 34.3688 9.90921C33.7229 9.94675 33.2299 10.5016 33.2678 11.1475C33.3054 11.7934 33.8602 12.2882 34.5061 12.2484C37.0398 12.1001 39.1235 12.3006 39.1437 12.3024C39.1478 12.3029 39.1519 12.3033 39.156 12.3038C39.8033 12.361 40.4515 12.442 41.0901 12.5423C42.164 13.8954 43.8215 14.7652 45.6791 14.7652C46.3434 14.7652 46.981 14.6526 47.5766 14.4484C54.0804 17.4124 57.6565 22.9166 57.6565 29.9991C57.6565 31.0359 56.8128 31.8796 55.7765 31.8796C54.7396 31.8796 53.8964 31.0359 53.8964 29.9991C53.8964 29.4974 54.0919 29.025 54.4471 28.6697C54.9044 28.2124 54.9044 27.4704 54.4471 27.0126C53.9894 26.5553 53.2473 26.5553 52.7896 27.0126C51.9917 27.8105 51.5527 28.8712 51.5527 29.9991C51.5527 32.3282 53.4474 34.2229 55.7765 34.2229C56.318 34.2229 56.8353 34.1194 57.3118 33.9326C56.6879 37.3892 55.2995 40.1436 53.8507 43.0147C52.1304 46.4232 50.3561 49.9393 50.0975 54.608H45.3999L43.7712 49.1002C43.5904 48.4886 42.9541 48.1343 42.3384 48.3023C37.9631 49.4989 31.7847 49.7351 27.6484 48.8622C27.051 48.7372 26.4568 49.0901 26.2833 49.6751L24.818 54.608H20.5398L20.1649 47.6408C20.1369 47.1236 19.773 46.6864 19.2695 46.5646C14.4401 45.4001 11.5251 44.697 8.06027 39.9902C7.83963 39.6899 7.48899 39.5128 7.11682 39.5128H4.90446C4.80238 39.5128 4.49202 39.5128 4.15556 38.4773L2.56118 33.577C2.36754 32.9805 2.20504 32.1671 2.53142 31.6759C2.79326 31.2813 3.43505 31.0226 4.33821 30.9471C7.37042 30.6944 8.3244 29.1925 9.11038 26.3264C10.5345 21.1313 13.8244 18.9294 16.1755 17.7251C16.462 17.5781 16.6758 17.3199 16.766 17.011C16.8562 16.702 16.8154 16.3692 16.6534 16.0913C15.2796 13.7379 15.2485 11.6721 16.0121 11.0353C16.6909 10.4686 19.0237 10.5231 23.4585 14.3221C23.7963 14.6109 24.2678 14.6846 24.6775 14.5111C25.3449 14.2291 26.0393 13.9677 26.7411 13.7347C27.3554 13.531 27.6877 12.8677 27.484 12.2534C27.2799 11.6391 26.6161 11.3063 26.0027 11.5105C25.4731 11.6862 24.9476 11.8767 24.4326 12.0799C18.6053 7.2908 15.7241 8.22281 14.5106 9.23538C12.8714 10.6032 12.7308 13.3177 14.0721 16.2085C10.3669 18.3971 7.99939 21.5144 6.84995 25.7062C6.13447 28.3159 5.59568 28.4903 4.1432 28.6116C2.05215 28.786 1.05102 29.6686 0.579527 30.3781C-0.0988761 31.3989 -0.182189 32.7187 0.332336 34.3011L1.92672 39.202C2.63946 41.3956 3.9395 41.8561 4.90446 41.8561H6.53226C10.1348 46.5312 13.471 47.5621 17.8715 48.6374L18.2592 55.8426C18.2926 56.4647 18.8067 56.9513 19.4292 56.9513H25.6919C26.2105 56.9513 26.6674 56.6107 26.8152 56.1136L28.2297 51.3524C32.3065 52.0088 37.5942 51.8102 41.8422 50.8415L43.4009 56.1122C43.5483 56.6098 44.0056 56.9518 44.5247 56.9518H51.2368C51.8841 56.9518 52.4087 56.4267 52.4087 55.7799C52.4087 51.0745 54.1253 47.672 55.9426 44.0703C57.9375 40.117 59.9998 36.0297 59.9998 29.9991C59.9998 22.44 56.4265 16.4648 49.8878 12.9767ZM42.1635 8.90625C42.1635 6.96762 43.7405 5.39062 45.6791 5.39062C47.6178 5.39062 49.1948 6.96762 49.1948 8.90625C49.1948 10.8449 47.6178 12.4219 45.6791 12.4219C43.7405 12.4219 42.1635 10.8449 42.1635 8.90625Z" fill="#FF692E"/>
<path d="M14.8198 25.9198C14.8198 26.6668 15.436 27.2766 16.1917 27.2766C16.947 27.2766 17.5636 26.6673 17.5636 25.9198C17.5636 25.1722 16.947 24.5625 16.1917 24.5625C15.436 24.5625 14.8198 25.1722 14.8198 25.9198Z" fill="#FF692E"/>
<path d="M35.1705 25.6549V26.9944H32.5759C30.6835 26.9944 29.144 28.5338 29.144 30.4262C29.144 32.3186 30.6835 33.8581 32.5759 33.8581H35.1705V36.0343H33.1078C32.4605 36.0343 31.9359 36.5593 31.9359 37.2061C31.9359 37.8534 32.4605 38.378 33.1078 38.378H35.1705V39.7174C35.1705 40.3643 35.6951 40.8893 36.3424 40.8893C36.9896 40.8893 37.5142 40.3643 37.5142 39.7174V38.378H40.1088C42.0012 38.378 43.5407 36.8386 43.5407 34.9462C43.5407 33.0538 42.0012 31.5143 40.1088 31.5143H32.5759C31.9758 31.5143 31.4878 31.0263 31.4878 30.4262C31.4878 29.8265 31.9758 29.3381 32.5759 29.3381H39.5769C40.2242 29.3381 40.7488 28.8135 40.7488 28.1662C40.7488 27.5194 40.2242 26.9948 39.5769 26.9948H37.5142V25.6554C37.5142 25.0081 36.9896 24.4835 36.3424 24.4835C35.6951 24.4835 35.1705 25.0081 35.1705 25.6549ZM41.1969 34.9462C41.1969 35.5463 40.7089 36.0343 40.1088 36.0343H37.5142V33.8581H40.1088C40.7089 33.8581 41.1969 34.346 41.1969 34.9462Z" fill="#FF692E"/>
</g>
<defs>
<clipPath id="clip0_1147_7313">
<rect width="60" height="60" fill="white"/>
</clipPath>
</defs>
</svg>
