<svg width="24" height="24" viewBox="0 0 24 24" fill="none" xmlns="http://www.w3.org/2000/svg">
<path d="M21.3844 11.3627L7.89375 3.11265C7.78018 3.0426 7.64998 3.00411 7.51658 3.00116C7.38318 2.99821 7.25141 3.0309 7.13486 3.09587C7.0183 3.16083 6.92119 3.25571 6.85354 3.37072C6.78589 3.48574 6.75015 3.61672 6.75 3.75015V20.2501C6.75015 20.3836 6.78589 20.5146 6.85354 20.6296C6.92119 20.7446 7.0183 20.8395 7.13486 20.9044C7.25141 20.9694 7.38318 21.0021 7.51658 20.9991C7.64998 20.9962 7.78018 20.9577 7.89375 20.8877L21.3844 12.6377C21.4952 12.5721 21.5869 12.4789 21.6507 12.3671C21.7145 12.2553 21.748 12.1288 21.748 12.0002C21.748 11.8715 21.7145 11.745 21.6507 11.6332C21.5869 11.5214 21.4952 11.4282 21.3844 11.3627V11.3627Z" stroke="#384250" stroke-width="1.5" stroke-linecap="round" stroke-linejoin="round"/>
</svg>
