<svg width="328" height="232" viewBox="0 0 328 232" fill="none" xmlns="http://www.w3.org/2000/svg">
<g opacity="0.2">
<circle cx="4" cy="4" r="4" fill="#111927"/>
<circle cx="60" cy="4" r="4" fill="#111927"/>
<circle cx="116" cy="4" r="4" fill="#111927"/>
<circle cx="172" cy="4" r="4" fill="#111927"/>
<circle cx="228" cy="4" r="4" fill="#111927"/>
<circle cx="284" cy="4" r="4" fill="#111927"/>
<circle cx="4" cy="60" r="4" fill="#111927"/>
<circle cx="60" cy="60" r="4" fill="#111927"/>
<circle cx="116" cy="60" r="4" fill="#111927"/>
<circle cx="172" cy="60" r="4" fill="#111927"/>
<circle cx="228" cy="60" r="4" fill="#111927"/>
<circle cx="284" cy="60" r="4" fill="#111927"/>
<circle cx="4" cy="116" r="4" fill="#111927"/>
<circle cx="60" cy="116" r="4" fill="#111927"/>
<circle cx="116" cy="116" r="4" fill="#111927"/>
<circle cx="172" cy="116" r="4" fill="#111927"/>
<circle cx="228" cy="116" r="4" fill="#111927"/>
<circle cx="284" cy="116" r="4" fill="#111927"/>
<circle cx="4" cy="172" r="4" fill="#111927"/>
<circle cx="60" cy="172" r="4" fill="#111927"/>
<circle cx="116" cy="172" r="4" fill="#111927"/>
<circle cx="172" cy="172" r="4" fill="#111927"/>
<circle cx="228" cy="172" r="4" fill="#111927"/>
<circle cx="284" cy="172" r="4" fill="#111927"/>
<circle cx="4" cy="228" r="4" fill="#111927"/>
<circle cx="60" cy="228" r="4" fill="#111927"/>
<circle cx="116" cy="228" r="4" fill="#111927"/>
<circle cx="172" cy="228" r="4" fill="#111927"/>
<circle cx="228" cy="228" r="4" fill="#111927"/>
<circle cx="284" cy="228" r="4" fill="#111927"/>
</g>
</svg>
